<svg width="15" height="15" viewBox="0 0 15 15" fill="none" xmlns="http://www.w3.org/2000/svg">
<path fill-rule="evenodd" clip-rule="evenodd" d="M7.50002 15C3.36402 15 1.52588e-05 11.636 1.52588e-05 7.5C1.52588e-05 3.364 3.36402 0 7.50002 0C11.636 0 15 3.364 15 7.5C15 11.636 11.636 15 7.50002 15ZM13.825 8.527C13.606 8.457 11.842 7.931 9.83502 8.253C10.673 10.555 11.014 12.431 11.079 12.82C12.517 11.849 13.54 10.309 13.825 8.527ZM10.002 13.407C9.90702 12.845 9.53502 10.886 8.63601 8.549C8.62201 8.554 8.60802 8.558 8.59302 8.563C4.98002 9.822 3.68302 12.328 3.56802 12.564C4.65402 13.411 6.01902 13.916 7.50002 13.916C8.38702 13.916 9.23302 13.735 10.002 13.407ZM2.74002 11.793C2.88602 11.545 4.64402 8.634 7.94802 7.566C8.03102 7.539 8.11602 7.513 8.20002 7.489C8.03901 7.125 7.86402 6.761 7.68102 6.402C4.48202 7.36 1.37702 7.32 1.09702 7.314C1.09502 7.379 1.09402 7.444 1.09402 7.51C1.09402 9.155 1.71702 10.657 2.74002 11.793ZM1.22902 6.198C1.51502 6.201 4.15501 6.213 7.15102 5.417C6.09002 3.53 4.94501 1.944 4.77602 1.712C2.98401 2.557 1.64402 4.21 1.22902 6.198ZM5.99902 1.281C6.17602 1.518 7.33902 3.103 8.38902 5.032C10.667 4.178 11.631 2.882 11.747 2.718C10.615 1.714 9.12802 1.103 7.50002 1.103C6.98302 1.103 6.48002 1.165 5.99902 1.281ZM12.459 3.458C12.324 3.641 11.25 5.017 8.88202 5.984C9.03102 6.29 9.17402 6.6 9.30702 6.912C9.35402 7.023 9.40001 7.133 9.44501 7.243C11.576 6.975 13.694 7.404 13.906 7.449C13.891 5.937 13.351 4.549 12.459 3.458Z" fill="#4F5362"/>
</svg>
