<svg width="24" height="15" viewBox="0 0 24 15" fill="none" xmlns="http://www.w3.org/2000/svg">
<path fill-rule="evenodd" clip-rule="evenodd" d="M21.35 8.06898V10.68H19.422V8.06898H16.772V6.17098H19.422V3.55998H21.35V6.17098H24V8.06898H21.35ZM7.61501 14.999C3.41001 14.999 0.00100708 11.642 0.00100708 7.49998C0.00100708 3.35798 3.41001 0.000976562 7.61501 0.000976562C9.59501 0.000976562 11.398 0.745977 12.752 1.96598L10.508 4.12998C9.72701 3.47898 8.71801 3.08598 7.61501 3.08598C5.14001 3.08598 3.13301 5.06198 3.13301 7.49998C3.13301 9.93798 5.14001 11.914 7.61501 11.914C9.53001 11.914 11.164 10.731 11.806 9.06598H7.51901V5.93398H11.806H15.037H15.063C15.172 6.43898 15.229 6.96298 15.229 7.49998C15.229 11.642 11.82 14.999 7.61501 14.999Z" fill="#4F5362"/>
</svg>
