<svg width="100" height="30" viewBox="0 0 100 30" fill="none" xmlns="http://www.w3.org/2000/svg">
<path fill-rule="evenodd" clip-rule="evenodd" d="M94.9596 19.5141C93.4923 19.414 93.0378 17.8167 92.973 16.1676C92.8728 13.5904 93.5788 12.5683 93.558 11.1607C93.5511 10.6619 93.3074 10.279 92.4614 10.1921C91.1679 10.0621 89.8838 12.4726 89.6133 14.4378C89.6168 14.4948 89.6194 14.5528 89.622 14.6099C89.6868 15.9446 90.2191 16.8508 90.2493 17.5674C90.2761 18.2119 89.8751 18.6931 88.3318 19.3122C88.1469 19.3833 87.962 19.4289 87.7978 19.421C87.0236 19.3886 86.7324 18.3401 86.6529 16.7481C86.639 16.4864 86.6261 16.2344 86.614 15.9876C86.099 16.4987 85.3567 16.7419 84.5384 16.6936C83.9966 16.6611 83.498 16.5804 83.0201 16.4478C81.9927 17.8176 80.4831 18.8968 78.6192 18.8511C76.0216 18.7932 74.4342 17.2451 73.6609 15.4072C72.5945 17.0396 70.5881 18.535 68.8434 18.5754C67.6138 18.5807 66.881 16.8903 66.4775 14.7794C65.7533 16.5189 63.9076 18.622 60.1271 18.7756C58.5215 18.8353 56.9342 17.9862 56.1089 16.2774C55.2275 17.6859 53.8544 18.8555 52.3958 18.9442C50.3211 19.0698 48.3327 17.9476 47.3597 15.5644C46.5941 17.6552 44.8365 20.2456 42.5397 21.9693C41.8899 25.6714 41.0163 29.5158 37.5667 29.6739C37.3109 29.6853 37.0612 29.6607 36.8193 29.6019C36.5764 29.5439 36.3431 29.4517 36.1193 29.3305C35.6726 29.089 35.2682 28.7308 34.9251 28.2856C34.2407 27.3969 33.8069 26.1649 33.781 24.8407C33.7145 21.9079 36.5358 21.7349 40.0234 20.3676C40.1331 19.6397 40.2109 18.9038 40.2844 18.2189C39.5568 19.2331 38.5077 19.9646 36.9687 20.0893C35.2319 20.2359 33.8631 19.1383 33.2055 17.3865C32.3051 19.018 30.7722 20.4713 29.1753 20.6416C27.6536 20.79 27.1334 18.9416 26.9528 17.0589C26.665 14.1208 27.231 12.8695 27.0107 11.3714C26.9294 10.8454 26.6279 10.5038 25.7845 10.6039C24.5125 10.7488 23.562 13.6027 23.403 15.8656C23.4099 15.9288 23.4168 15.9929 23.4237 16.0561C23.5793 17.527 24.1677 18.4463 24.2317 19.2639C24.287 19.9962 23.8921 20.6469 22.3151 21.6198C22.1267 21.7331 21.9366 21.8156 21.7663 21.835C20.9644 21.928 20.6352 20.819 20.4926 19.0803C20.4736 18.8599 20.4546 18.6492 20.4365 18.4393C19.568 20.2166 17.8968 21.8938 16.1496 22.1116C14.2468 22.3408 13.5477 19.9505 13.2686 17.2591C12.9878 14.0681 13.1615 9.19369 14.8975 8.94607C15.9171 8.79415 16.6516 10.5065 16.7389 11.0781C17.0647 13.2866 16.293 16.4249 16.4261 17.9116C16.4779 18.456 16.8945 18.7071 17.3568 18.6439C18.1284 18.5183 19.4496 16.2045 20.1746 15.2711C20.0148 12.7448 20.1262 10.9034 21.0742 8.73005C21.298 8.20845 21.5736 7.97839 21.8873 7.93887C22.5631 7.8537 23.3926 8.70371 23.8333 9.39302C24.3639 8.63346 25.1839 8.02405 26.4602 7.87916C28.6266 7.64207 29.9858 8.55267 30.2718 10.2992C30.6676 12.6728 29.9582 15.4775 30.0584 16.5988C30.0886 16.9105 30.1759 17.0756 30.3695 17.0554C31.0107 16.9606 32.0208 15.3343 32.7519 14.2709C32.757 12.6262 33.0724 11.0333 33.8268 9.77061C34.7099 8.31558 36.2109 6.95276 38.2105 6.80611C39.1256 6.7385 40.4485 6.90885 41.0292 7.15648C41.1217 6.32052 41.5157 6.08869 41.9253 6.06323C42.8914 6.00088 44.0968 7.69827 44.191 8.28046C44.4122 9.54669 43.9448 13.8477 43.2249 18.1926C45.1744 15.9139 46.1241 13.7985 46.7497 12.8484C46.0601 6.45399 47.6596 0.263312 52.6991 0.000756762C54.1042 -0.0273428 55.0633 0.72871 55.2509 1.99758C55.6518 4.81017 52.4114 7.17667 49.9953 11.461C50.042 11.8043 50.086 12.1529 50.1301 12.5059C50.3695 14.4755 51.3079 15.4608 52.5064 15.4037C53.9305 15.3457 54.83 14.3833 55.4963 13.3594C55.2872 8.6677 57.6393 6.01493 60.8426 5.96839C62.6615 5.97717 63.7857 6.9027 63.9655 8.22514C64.3405 11.043 61.3161 11.4768 58.9303 12.7913C58.9553 13.0126 58.9795 13.2365 59.0029 13.4622C59.1575 14.962 60.5868 15.3097 61.4708 15.2939C64.1953 15.2175 65.4967 12.7544 66.1517 12.116C66.0687 10.7875 66.0869 9.40883 66.2156 8.14435C65.8536 8.13733 65.4915 8.1303 65.1303 8.12415C64.9367 8.12152 64.8279 8.02493 64.8089 7.88443C64.7077 7.13277 64.7276 6.76396 65.202 6.1528C65.5174 6.15807 65.9789 6.16685 66.5103 6.15543C66.9173 4.10943 67.6034 2.68163 68.4934 2.69919C69.5554 2.72729 69.9357 3.62911 70.2848 4.59591C70.0091 5.13331 69.7386 5.67071 69.4725 6.21251C70.5941 6.27046 71.3511 6.32315 71.8868 6.34335C72.1296 6.35301 72.1642 6.44609 72.1945 6.72357C72.2264 7.02125 72.0579 8.31646 71.6967 8.30505C71.3105 8.29012 69.9676 8.12503 69.2668 8.10396C69.177 9.88916 69.2478 12.2126 69.3506 13.3638C69.4561 14.472 69.679 15.2342 70.0601 15.2386C70.6071 15.2395 72.3768 14.0251 73.107 13.0091C72.8425 9.23321 74.9951 6.35301 79.0676 6.56639C80.8797 6.67527 82.7548 7.50509 82.7954 8.18562C82.8084 8.39725 82.334 8.52369 80.9281 8.4271C78.1275 8.25236 76.3189 10.0323 76.5876 12.995C76.7181 14.4957 77.6332 15.8138 79.3355 15.8875C80.0216 15.9191 80.6014 15.7593 81.0759 15.4441C79.9603 14.5704 79.2491 13.2883 79.1238 11.8122C78.9968 10.3563 79.9637 8.80118 82.0506 8.94958C83.6259 9.06549 84.4658 10.229 84.5626 11.727C84.6153 12.5261 84.4831 13.3946 84.1832 14.2525C84.2307 14.256 84.2783 14.2595 84.3258 14.263C85.6427 14.3517 86.1162 13.5632 86.5172 13.1724C86.5146 10.8963 86.8231 9.25165 88.0838 7.44274C88.3906 6.9993 88.7094 6.8386 89.0292 6.8667C89.7196 6.92641 90.3902 7.90814 90.7177 8.64751C91.364 8.04951 92.3007 7.63944 93.6047 7.7694C95.8246 7.9898 96.9523 9.18052 96.9255 10.8709C96.89 13.1733 95.9654 15.4169 95.9957 16.3679C96.0035 16.6339 96.0778 16.7867 96.2644 16.8052C97.1631 16.8798 99.2041 14.2499 99.669 14.3148C99.7874 14.3298 99.8695 14.4114 99.9222 14.5563C99.949 14.6292 99.968 14.7179 99.981 14.8224C99.987 14.8751 99.9914 14.9313 99.9948 14.991C99.9983 15.0507 100 15.1148 100 15.1833C99.9957 17.2064 97.4967 19.6502 94.9596 19.5141ZM35.9957 25.1121C36.0078 26.1641 36.986 26.6795 37.584 26.6409C38.3012 26.6005 38.9113 25.2482 39.3831 23.5473C37.0681 24.3859 35.9862 24.3551 35.9957 25.1121ZM36.2818 14.6582C36.4019 15.7286 36.7873 16.8139 37.8692 16.7235C38.9 16.6462 40.0139 15.632 40.4088 13.6264C40.5289 11.9352 40.7614 9.64065 40.9195 8.19353C38.563 8.71073 35.8419 10.8331 36.2818 14.6582ZM52.7233 2.74309C52.668 2.40414 52.5211 2.24784 52.2282 2.25399C51.1688 2.30492 49.8881 4.40185 49.8484 8.35246C51.4747 5.00862 52.9488 4.16388 52.7233 2.74309ZM61.037 8.63258C60.9869 8.27431 60.7112 8.0381 60.2057 8.0381C59.2396 8.04073 58.9173 9.40356 58.8827 11.0008C60.1046 10.056 61.1744 9.61782 61.037 8.63258ZM82.8974 11.7218C82.868 11.3082 82.6961 10.913 82.3124 10.8858C82.0246 10.8647 81.8492 11.3793 81.8786 11.7701C81.927 12.4049 82.1836 12.9906 82.6174 13.4437C82.8585 12.837 82.9328 12.2074 82.8974 11.7218ZM15.155 6.90534C15.1541 6.90534 14.2952 6.01845 13.9729 4.70831C13.7655 3.82844 13.8623 1.60682 14.9364 1.46808C16.0001 1.339 17.2764 3.22254 17.4112 3.81C17.8795 5.74711 16.408 6.72445 15.155 6.90534ZM5.62378 23.6184C2.92082 23.9811 0.335385 22.8044 0.0182545 19.4254C0.00615683 19.2955 0.000108015 19.1629 0.000108015 19.0285C-0.000756102 18.8951 0.00356448 18.7581 0.0130698 18.6211C0.0329444 18.3462 0.0718297 18.067 0.129726 17.7895C0.244653 17.2337 0.432166 16.6849 0.674119 16.1922C1.15889 15.207 1.86574 14.4457 2.6564 14.2999C2.9744 14.2419 3.54558 14.1893 3.61125 14.6898C3.75297 15.7663 3.37535 16.8376 3.50756 18.1399C3.62681 19.3139 4.14182 20.3106 5.54601 20.0858C7.07031 19.846 8.40796 18.8397 8.20057 16.8974C7.76247 13.3287 2.80849 13.5561 1.96684 9.2815C1.3006 6.24324 3.07636 4.28506 5.6497 3.88815C7.65704 3.57467 9.80437 4.44751 10.3825 6.96856C10.7428 8.55531 9.7966 10.0815 8.07614 10.6759C9.96337 11.7832 11.8878 12.7255 12.2732 15.9481C12.7199 19.9426 9.0284 23.1864 5.62378 23.6184ZM8.07873 7.23112C7.89468 6.43379 7.00982 6.14665 6.15694 6.28451C5.4259 6.40306 4.74584 6.81928 4.49092 7.44538C5.209 8.76605 6.21311 9.55108 7.26474 10.2062C7.80395 9.458 8.29217 8.14874 8.07873 7.23112ZM3.27079 28.0388C8.04331 27.0711 21.6678 25.1929 26.6961 25.0128C29.781 24.911 30.9986 25.2956 31.0642 26.7208C31.0789 27.0264 30.8551 27.4075 29.9729 27.4373C20.8158 27.7622 6.60196 29.9434 2.65986 29.9988C2.59073 29.9996 2.5216 30.0005 2.45333 29.9996C2.38421 29.9996 2.31594 29.9979 2.24854 29.9952C2.11201 29.9909 1.97894 29.9821 1.84932 29.9707C1.59008 29.9478 1.34813 29.9118 1.13988 29.8653C0.724238 29.774 0.445128 29.6422 0.442536 29.493C0.42871 28.7633 1.93314 28.3181 3.27079 28.0388ZM44.7492 25.5028C44.7985 25.3623 44.8858 25.2333 45.0119 25.1138C45.2643 24.8732 45.673 24.6713 46.258 24.4913C47.4263 24.133 49.3031 23.852 52.0251 23.5745C56.49 23.1328 64.7155 22.6446 72.7172 22.6411C76.7216 22.6297 80.6766 22.7201 84.1279 22.8588C87.5792 22.9967 90.5293 23.1741 92.5271 23.3242C94.7851 23.5139 97.3351 23.8204 97.4197 24.464C97.4517 24.7327 95.6457 25.0559 93.8224 25.1446C87.3225 25.523 63.4012 24.7819 46.8447 26.3467C46.6451 26.3669 46.4619 26.3809 46.2952 26.3897C46.1284 26.3976 45.9772 26.4003 45.8406 26.3968C45.5676 26.3906 45.3541 26.3634 45.1899 26.3212C44.8616 26.2369 44.7311 26.0938 44.7104 25.9551C44.7043 25.9147 44.7009 25.8752 44.7 25.8356C44.6983 25.797 44.6991 25.7584 44.7026 25.7206C44.7086 25.6451 44.7242 25.5722 44.7492 25.5028Z" fill="white"/>
</svg>
