<svg width="17" height="14" viewBox="0 0 17 14" fill="none" xmlns="http://www.w3.org/2000/svg">
<path fill-rule="evenodd" clip-rule="evenodd" d="M17 1.65798C16.375 1.93898 15.702 2.12898 14.997 2.21498C15.717 1.77698 16.27 1.08498 16.53 0.259977C15.856 0.664977 15.11 0.958977 14.315 1.11698C13.679 0.429977 12.773 0.000976563 11.77 0.000976563C9.84401 0.000976563 8.28201 1.58298 8.28201 3.53498C8.28201 3.81298 8.31301 4.08198 8.37301 4.34098C5.47501 4.19398 2.90501 2.78598 1.18601 0.647977C0.886014 1.16998 0.714014 1.77698 0.714014 2.42498C0.714014 3.65098 1.33001 4.73298 2.26501 5.36598C1.69301 5.34798 1.15501 5.18898 0.686014 4.92398C0.686014 4.93898 0.686014 4.95398 0.686014 4.96898C0.686014 6.68098 1.88701 8.10898 3.48301 8.43398C3.19001 8.51498 2.88301 8.55798 2.56401 8.55798C2.34001 8.55798 2.12101 8.53598 1.90801 8.49398C2.35201 9.89798 3.64001 10.92 5.16601 10.949C3.97201 11.896 2.46801 12.461 0.834014 12.461C0.553014 12.461 0.275014 12.445 0.00201416 12.412C1.54501 13.415 3.37801 14 5.34801 14C11.762 14 15.27 8.61498 15.27 3.94498C15.27 3.79098 15.266 3.63998 15.26 3.48798C15.941 2.98998 16.533 2.36698 17 1.65898V1.65798Z" fill="#4F5362"/>
</svg>
